<?xml version="1.0" encoding="UTF-8"?>
<svg id="_.md" data-name=".md" xmlns="http://www.w3.org/2000/svg" viewBox="0 0 1075.38 1076.01">
  <defs>
    <style>
      .cls-1 {
        fill: #543e20;
      }
    </style>
  </defs>
  <path class="cls-1" d="m201.27,706.15c-10.73,0-19.42-3.2-26.09-9.61-6.67-6.4-10-14.18-10-23.34s3.33-17.32,10-23.73c6.67-6.4,15.36-9.61,26.09-9.61s19.02,3.2,25.69,9.61c6.67,6.41,10,14.32,10,23.73s-3.33,16.93-10,23.34c-6.67,6.41-15.24,9.61-25.69,9.61Z"/>
  <path class="cls-1" d="m259.71,704.19v-197.7h51.39l4.71,25.5c6.28-8.89,14.57-16.14,24.91-21.77,10.33-5.62,22.29-8.43,35.89-8.43,9.67,0,18.37,1.24,26.09,3.73,7.71,2.49,14.57,6.15,20.59,10.98,6.01,4.84,11.11,10.92,15.3,18.24,7.58-10.2,17.26-18.24,29.03-24.12,11.77-5.88,24.71-8.82,38.83-8.82,17.26,0,31.7,3.53,43.34,10.59,11.63,7.06,20.4,17.26,26.28,30.6,5.88,13.34,8.83,29.55,8.83,48.64v112.58h-58.45v-107.09c0-14.91-2.88-26.28-8.63-34.13-5.75-7.85-14.65-11.77-26.67-11.77-7.85,0-14.71,1.9-20.59,5.69-5.88,3.79-10.53,9.22-13.92,16.28-3.4,7.06-5.1,15.69-5.1,25.89v105.13h-58.45v-107.09c0-14.91-2.88-26.28-8.63-34.13-5.76-7.85-15.04-11.77-27.85-11.77-7.59,0-14.19,1.9-19.81,5.69-5.63,3.79-10.07,9.22-13.34,16.28-3.27,7.06-4.9,15.69-4.9,25.89v105.13h-58.84Z"/>
  <path class="cls-1" d="m702.18,708.89c-17.52,0-33.34-4.45-47.46-13.34-14.12-8.89-25.24-21.11-33.34-36.68-8.11-15.55-12.16-33.27-12.16-53.15s4.12-37.72,12.36-53.54c8.24-15.82,19.55-28.17,33.93-37.07,14.38-8.89,30.6-13.34,48.64-13.34,13.86,0,25.82,2.42,35.89,7.26,10.06,4.84,18.24,11.71,24.52,20.59v-107.87h58.84v282.43h-52.17l-6.28-25.89c-3.92,5.49-8.7,10.59-14.32,15.3-5.63,4.71-12.42,8.43-20.4,11.18-7.98,2.75-17.33,4.12-28.05,4.12Zm15.69-51.39c9.67,0,18.17-2.29,25.5-6.86,7.32-4.57,13.07-10.72,17.26-18.44,4.18-7.71,6.28-16.8,6.28-27.26s-2.1-18.83-6.28-26.67c-4.19-7.85-10-13.99-17.46-18.44-7.45-4.44-15.89-6.67-25.3-6.67s-18.24,2.29-25.69,6.86c-7.45,4.58-13.21,10.73-17.26,18.44-4.06,7.72-6.08,16.54-6.08,26.48s2.02,19.22,6.08,27.07c4.05,7.85,9.81,14.06,17.26,18.63,7.45,4.58,16.02,6.86,25.69,6.86Z"/>
</svg>